<?xml version="1.0" encoding="UTF-8" standalone="no"?>
<!-- Created with Inkscape (http://www.inkscape.org/) -->

<svg
   xmlns:dc="http://purl.org/dc/elements/1.1/"
   xmlns:cc="http://creativecommons.org/ns#"
   xmlns:rdf="http://www.w3.org/1999/02/22-rdf-syntax-ns#"
   xmlns:svg="http://www.w3.org/2000/svg"
   xmlns="http://www.w3.org/2000/svg"
   xmlns:sodipodi="http://sodipodi.sourceforge.net/DTD/sodipodi-0.dtd"
   xmlns:inkscape="http://www.inkscape.org/namespaces/inkscape"
   width="486.60501"
   height="494.66263"
   id="svg2"
   version="1.1"
   inkscape:version="0.48.4 r9939"
   sodipodi:docname="NEST_PerformanceAndMemConsumption.svg">
  <defs
     id="defs4">
    <clipPath
       clipPathUnits="userSpaceOnUse"
       id="clipPath4211">
      <path
         inkscape:connector-curvature="0"
         d="m 438.598,186.023 122.362,-0.044 0,-157.333 -228.362,0 0,169.07 97.043,0 8.957,-11.693 z"
         id="path4213" />
    </clipPath>
    <radialGradient
       fx="0"
       fy="0"
       cx="0"
       cy="0"
       r="1"
       gradientUnits="userSpaceOnUse"
       gradientTransform="matrix(-76.911545,0,0,-76.911545,526.86798,124.5199)"
       spreadMethod="pad"
       id="radialGradient4219">
      <stop
         style="stop-opacity:1;stop-color:#eef2f8"
         offset="0"
         id="stop4221" />
      <stop
         style="stop-opacity:1;stop-color:#b3dcc7"
         offset="1"
         id="stop4223" />
    </radialGradient>
    <clipPath
       clipPathUnits="userSpaceOnUse"
       id="clipPath4233">
      <path
         inkscape:connector-curvature="0"
         d="m 386.053,103.154 142.694,0 0,74.438 -142.694,0 0,-74.438 z"
         id="path4235" />
    </clipPath>
    <clipPath
       clipPathUnits="userSpaceOnUse"
       id="clipPath4321">
      <path
         inkscape:connector-curvature="0"
         d="m 359.286,35.433 169.847,0 0,142.544 -169.847,0 0,-142.544 z"
         id="path4323" />
    </clipPath>
    <clipPath
       clipPathUnits="userSpaceOnUse"
       id="clipPath4333">
      <path
         inkscape:connector-curvature="0"
         d="m 332.599,197.716 0,-169.07 228.361,0 0,157.333 -122.362,0.045 -8.957,11.692 -97.042,0 z"
         id="path4335" />
    </clipPath>
    <clipPath
       clipPathUnits="userSpaceOnUse"
       id="clipPath4353">
      <path
         inkscape:connector-curvature="0"
         d="m 359.286,35.433 169.847,0 0,142.544 -169.847,0 0,-142.544 z"
         id="path4355" />
    </clipPath>
    <clipPath
       clipPathUnits="userSpaceOnUse"
       id="clipPath4365">
      <path
         inkscape:connector-curvature="0"
         d="m 332.599,197.716 0,-169.07 228.361,0 0,157.333 -122.362,0.045 -8.957,11.692 -97.042,0 z"
         id="path4367" />
    </clipPath>
    <clipPath
       clipPathUnits="userSpaceOnUse"
       id="clipPath4385">
      <path
         inkscape:connector-curvature="0"
         d="m 359.286,35.433 169.847,0 0,142.544 -169.847,0 0,-142.544 z"
         id="path4387" />
    </clipPath>
    <clipPath
       clipPathUnits="userSpaceOnUse"
       id="clipPath4397">
      <path
         inkscape:connector-curvature="0"
         d="m 332.599,197.716 0,-169.07 228.361,0 0,157.333 -122.362,0.045 -8.957,11.692 -97.042,0 z"
         id="path4399" />
    </clipPath>
    <clipPath
       clipPathUnits="userSpaceOnUse"
       id="clipPath4417">
      <path
         inkscape:connector-curvature="0"
         d="m 359.286,35.433 169.847,0 0,142.544 -169.847,0 0,-142.544 z"
         id="path4419" />
    </clipPath>
    <clipPath
       clipPathUnits="userSpaceOnUse"
       id="clipPath4429">
      <path
         inkscape:connector-curvature="0"
         d="m 332.599,197.716 0,-169.07 228.361,0 0,157.333 -122.362,0.045 -8.957,11.692 -97.042,0 z"
         id="path4431" />
    </clipPath>
    <clipPath
       clipPathUnits="userSpaceOnUse"
       id="clipPath4449">
      <path
         inkscape:connector-curvature="0"
         d="m 359.286,35.433 169.847,0 0,142.544 -169.847,0 0,-142.544 z"
         id="path4451" />
    </clipPath>
    <clipPath
       clipPathUnits="userSpaceOnUse"
       id="clipPath4465">
      <path
         inkscape:connector-curvature="0"
         d="m 332.599,197.716 0,-169.07 228.361,0 0,157.333 -122.362,0.045 -8.957,11.692 -97.042,0 z"
         id="path4467" />
    </clipPath>
    <clipPath
       clipPathUnits="userSpaceOnUse"
       id="clipPath4631">
      <path
         inkscape:connector-curvature="0"
         d="m 359.286,35.433 169.847,0 0,142.544 -169.847,0 0,-142.544 z"
         id="path4633" />
    </clipPath>
    <clipPath
       clipPathUnits="userSpaceOnUse"
       id="clipPath4643">
      <path
         inkscape:connector-curvature="0"
         d="m 332.599,197.716 0,-169.07 228.361,0 0,157.333 -122.362,0.045 -8.957,11.692 -97.042,0 z"
         id="path4645" />
    </clipPath>
    <clipPath
       clipPathUnits="userSpaceOnUse"
       id="clipPath4663">
      <path
         inkscape:connector-curvature="0"
         d="m 359.286,35.433 169.847,0 0,142.544 -169.847,0 0,-142.544 z"
         id="path4665" />
    </clipPath>
    <clipPath
       clipPathUnits="userSpaceOnUse"
       id="clipPath4675">
      <path
         inkscape:connector-curvature="0"
         d="m 332.599,197.716 0,-169.07 228.361,0 0,157.333 -122.362,0.045 -8.957,11.692 -97.042,0 z"
         id="path4677" />
    </clipPath>
    <clipPath
       clipPathUnits="userSpaceOnUse"
       id="clipPath4695">
      <path
         inkscape:connector-curvature="0"
         d="m 359.286,35.433 169.847,0 0,142.544 -169.847,0 0,-142.544 z"
         id="path4697" />
    </clipPath>
    <clipPath
       clipPathUnits="userSpaceOnUse"
       id="clipPath4711">
      <path
         inkscape:connector-curvature="0"
         d="m 332.599,197.716 0,-169.07 228.361,0 0,157.333 -122.362,0.045 -8.957,11.692 -97.042,0 z"
         id="path4713" />
    </clipPath>
    <clipPath
       clipPathUnits="userSpaceOnUse"
       id="clipPath17412-3-5-0">
      <path
         inkscape:connector-curvature="0"
         d="m 419.517,223.087 -81.486,0 0,-120.056 222.929,0 0,131 -133.691,0 -7.752,-10.944 z"
         id="path17414-3-5-9" />
    </clipPath>
  </defs>
  <sodipodi:namedview
     id="base"
     pagecolor="#ffffff"
     bordercolor="#666666"
     borderopacity="1.0"
     inkscape:pageopacity="0.0"
     inkscape:pageshadow="2"
     inkscape:zoom="0.35"
     inkscape:cx="1062.7343"
     inkscape:cy="469.68104"
     inkscape:document-units="px"
     inkscape:current-layer="layer1"
     showgrid="false"
     fit-margin-top="0"
     fit-margin-left="0"
     fit-margin-right="0"
     fit-margin-bottom="0"
     inkscape:window-width="1920"
     inkscape:window-height="1056"
     inkscape:window-x="1600"
     inkscape:window-y="24"
     inkscape:window-maximized="1" />
  <metadata
     id="metadata7">
    <rdf:RDF>
      <cc:Work
         rdf:about="">
        <dc:format>image/svg+xml</dc:format>
        <dc:type
           rdf:resource="http://purl.org/dc/dcmitype/StillImage" />
        <dc:title></dc:title>
      </cc:Work>
    </rdf:RDF>
  </metadata>
  <g
     inkscape:label="Layer 1"
     inkscape:groupmode="layer"
     id="layer1"
     transform="translate(687.73431,-507.38056)">
    <g
       id="g6146"
       transform="translate(-2376.0792,-662.26787)">
      <g
         style="fill:#acd8de;fill-opacity:1"
         id="g29910-7-8"
         transform="translate(-6.30456,797.54983)">
        <g
           style="fill:#acd8de;fill-opacity:1"
           transform="matrix(2.1768993,0,0,-3.7590132,959.43292,1252.9725)"
           id="g17408-4-3-6">
          <g
             style="fill:#acd8de;fill-opacity:1"
             id="g17410-0-6-0"
             clip-path="url(#clipPath17412-3-5-0)">
            <g
               style="fill:#acd8de;fill-opacity:1"
               id="g17416-8-8-7">
              <g
                 style="fill:#acd8de;fill-opacity:1"
                 id="g17418-1-8-3">
                <path
                   inkscape:connector-curvature="0"
                   d="m 419.517,223.087 -81.486,0 0,-120.056 222.929,0 0,131 -133.691,0 -7.752,-10.944 z"
                   style="fill:#acd8de;fill-opacity:1;stroke:none"
                   id="path17426-1-9-1" />
              </g>
            </g>
          </g>
        </g>
        <g
           style="fill:#acd8de;fill-opacity:1"
           id="g17758-1-9-4"
           transform="matrix(2.1768993,0,0,-3.7590132,1872.679,414.3875)">
          <path
             inkscape:connector-curvature="0"
             d="m 0,0 -81.485,0 0,-120.055 222.928,0 0,130.999 -133.691,0 L 0,0 z"
             style="fill:#acd8de;fill-opacity:1;stroke:#444141;stroke-width:0.60000002;stroke-linecap:butt;stroke-linejoin:miter;stroke-miterlimit:4;stroke-opacity:1;stroke-dasharray:none"
             id="path17760-5-4-4" />
        </g>
        <text
           style="font-size:30.26065445px;fill:#696767;fill-opacity:1"
           y="398.84436"
           x="1714.8611"
           id="text18146-1-1-7">
          <tspan
             style="font-size:20.173769px;font-style:italic;font-variant:normal;font-weight:300;font-stretch:condensed;writing-mode:lr-tb;fill:#696767;fill-opacity:1;fill-rule:nonzero;stroke:none;font-family:Conduit ITC;-inkscape-font-specification:ConduitITC-LightItalic"
             sodipodi:role="line"
             id="tspan18148-8-1-3"
             x="1714.8611"
             y="398.84436">NESTProxy</tspan>
        </text>
      </g>
      <g
         transform="matrix(1.9371417,0,0,-1.9371417,1725.4698,1285.5015)"
         id="g6004">
        <path
           sodipodi:nodetypes="cc"
           id="path6006"
           style="fill:none;stroke:#000000;stroke-width:0.398;stroke-linecap:butt;stroke-linejoin:miter;stroke-miterlimit:10;stroke-opacity:1;stroke-dasharray:none"
           d="M 0,0 215.366,0"
           inkscape:connector-curvature="0" />
      </g>
      <g
         transform="matrix(1.9371417,0,0,-1.9371417,1725.4698,1289.3602)"
         id="g6008">
        <path
           sodipodi:nodetypes="cc"
           id="path6010"
           style="fill:none;stroke:#000000;stroke-width:0.398;stroke-linecap:butt;stroke-linejoin:miter;stroke-miterlimit:10;stroke-opacity:1;stroke-dasharray:none"
           d="M 0,0 215.366,0"
           inkscape:connector-curvature="0" />
      </g>
      <text
         id="text6012"
         x="1737.048"
         y="1305.9576"
         style="font-size:23.24569702px">
        <tspan
           id="tspan6014"
           sodipodi:role="line"
           y="1305.9576"
           x="1737.048 1750.9818 1760.6313 1776.7073 2037.6294 2049.0735 2058.7231 2069.4534"
           style="font-size:19.29896545px;font-variant:normal;writing-mode:lr-tb;fill:#000000;fill-opacity:1;fill-rule:nonzero;stroke:none;font-family:Nimbus Roman No9 L;-inkscape-font-specification:NimbusRomNo9L-Medi">NameType</tspan>
      </text>
      <g
         transform="matrix(1.9371417,0,0,-1.9371417,1725.4698,1313.2916)"
         id="g6016">
        <path
           sodipodi:nodetypes="cc"
           id="path6018"
           style="fill:none;stroke:#000000;stroke-width:0.398;stroke-linecap:butt;stroke-linejoin:miter;stroke-miterlimit:10;stroke-opacity:1;stroke-dasharray:none"
           d="M 0,0 215.366,0"
           inkscape:connector-curvature="0" />
      </g>
      <text
         id="text6020"
         x="1737.048"
         y="1329.889"
         style="font-size:23.24569702px">
        <tspan
           id="tspan6022"
           sodipodi:role="line"
           y="1329.889"
           x="1737.048 1746.6975 1756.347 1771.3613 1781.011 1789.5797 1796.0063 1809.9402 1816.3667 1827.097 1836.7463 1842.1116 1851.568 1860.1368 1874.0707 1882.6396 1888.0044 1896.5734 1905.1421 1910.5072 1920.1566 1926.5831 1934.0905 1944.8204 1953.3893 1959.8159 1971.6075 1981.257 1987.6835 1996.2523 2004.821 2037.6294 2044.056 2053.7053 2059.0703 2067.3499 2076.999 2085.5681"
           style="font-size:19.29896545px;font-variant:normal;writing-mode:lr-tb;fill:#000000;fill-opacity:1;fill-rule:nonzero;stroke:none;font-family:Nimbus Roman No9 L;-inkscape-font-specification:NimbusRomNo9L-Regu">numberOfSpikeDetectorsPerThreadInteger</tspan>
        <tspan
           id="tspan6024"
           sodipodi:role="line"
           y="1353.0476"
           x="1737.048 1746.6975 1756.347 1771.3613 1781.011 1789.5797 1796.0063 1809.9402 1816.3667 1833.5236 1843.1731 1848.5381 1853.9032 1859.2683 1874.2828 1882.8517 1888.2168 1896.7855 1903.2122 1910.7192 1921.4496 1930.0183 1936.4449 1948.2365 1957.8861 1964.3126 1972.8813 1981.4502 2037.6294 2044.056 2053.7053 2059.0703 2067.3499 2076.999 2085.5681"
           style="font-size:19.29896545px;font-variant:normal;writing-mode:lr-tb;fill:#000000;fill-opacity:1;fill-rule:nonzero;stroke:none;font-family:Nimbus Roman No9 L;-inkscape-font-specification:NimbusRomNo9L-Regu">numberOfMultimetersPerThreadInteger</tspan>
        <tspan
           id="tspan6026"
           sodipodi:role="line"
           y="1376.2062"
           x="1737.048 1744.5554 1754.2047 1759.5698 1769.0262 1777.5951 1785.1025 1795.8328 1804.4016 1810.8279 1824.7618 1833.3304 1838.6957 1847.2644 1855.8331 1861.1984 1870.8475 2037.6294 2051.5632 2056.928 2064.4355 2069.8008 2076.2273 2081.5925 2090.856 2100.5056 2105.8706 2111.2358 2120.8853"
           style="font-size:19.29896545px;font-variant:normal;writing-mode:lr-tb;fill:#000000;fill-opacity:1;fill-rule:nonzero;stroke:none;font-family:Nimbus Roman No9 L;-inkscape-font-specification:NimbusRomNo9L-Regu">spikesPerDetectorDistribution</tspan>
        <tspan
           y="0"
           x="1737.048"
           id="tspan6028"
           sodipodi:role="line"
           style="font-size:19.29896545px;font-variant:normal;writing-mode:lr-tb;fill:#000000;fill-opacity:1;fill-rule:nonzero;stroke:none;font-family:Nimbus Roman No9 L;-inkscape-font-specification:NimbusRomNo9L-Regu" />
        <tspan
           id="tspan6030"
           sodipodi:role="line"
           y="1422.5233"
           x="1737.048 1744.5554 1753.1239 1768.1387 1777.7882 1783.1533 1788.5184 1798.1677 1807.8174 1814.2439 1823.8934 1829.2584 1837.8273 1844.2538 1853.4209 1861.9894 1867.3546 1874.8619 1888.7959 1895.2224 1912.379 1920.9476 1926.3127 1934.8817 2037.6294 2051.5632 2056.928 2064.4355 2069.8008 2076.2273 2081.5925 2090.856 2100.5056 2105.8706 2111.2358 2120.8853"
           style="font-size:19.29896545px;font-variant:normal;writing-mode:lr-tb;fill:#000000;fill-opacity:1;fill-rule:nonzero;stroke:none;font-family:Nimbus Roman No9 L;-inkscape-font-specification:NimbusRomNo9L-Regu">samplingIntervalsOfMeterDistribution</tspan>
        <tspan
           id="tspan6032"
           sodipodi:role="line"
           y="1445.6838"
           x="1737.048 1746.6975 1756.347 1771.3613 1781.011 1789.5797 1796.0063 1809.9402 1816.3667 1828.1584 1836.7272 1842.0922 1851.7417 1860.3104 1867.8177 1886.0361 1892.4625 1897.8276 1903.1929 1908.558 1917.1266 1926.7761 1939.6486 1949.298 1966.4548 1975.0234 1980.3888 1988.9574 2037.6294 2051.5632 2056.928 2064.4355 2069.8008 2076.2273 2081.5925 2090.856 2100.5056 2105.8706 2111.2358 2120.8853"
           style="font-size:19.29896545px;font-variant:normal;writing-mode:lr-tb;fill:#000000;fill-opacity:1;fill-rule:nonzero;stroke:none;font-family:Nimbus Roman No9 L;-inkscape-font-specification:NimbusRomNo9L-Regu">numberOfValuesWrittenByMeterDistribution</tspan>
        <tspan
           y="150.694"
           x="1737.048"
           id="tspan6034"
           sodipodi:role="line"
           style="font-size:19.29896545px;font-variant:normal;writing-mode:lr-tb;fill:#000000;fill-opacity:1;fill-rule:nonzero;stroke:none;font-family:Nimbus Roman No9 L;-inkscape-font-specification:NimbusRomNo9L-Regu" />
        <tspan
           id="tspan6036"
           sodipodi:role="line"
           y="1492.001"
           x="1737.048 1746.6975 1755.2662 1763.8351 1773.4844 1784.6007 1789.9658 1804.9803 1813.5492 1827.4832 1837.1323 1846.782 1855.3508 1860.7158 2037.6294 2051.5632 2056.928 2064.4355 2069.8008 2076.2273 2081.5925 2090.856 2100.5056 2105.8706 2111.2358 2120.8853"
           style="font-size:19.29896545px;font-variant:normal;writing-mode:lr-tb;fill:#000000;fill-opacity:1;fill-rule:nonzero;stroke:none;font-family:Nimbus Roman No9 L;-inkscape-font-specification:NimbusRomNo9L-Regu">deadTimeUpdateDistribution</tspan>
        <tspan
           id="tspan6040"
           sodipodi:role="line"
           y="1538.3177"
           x="1737.048 1746.6975 1755.2662 1763.8351 1773.4844 1784.6007 1789.9658 1804.9803 1813.5492 1827.4832 1836.0518 1841.4169 1846.2996 1855.6595 1864.2281 2037.6294 2051.5632 2056.928 2064.4355 2069.8008 2076.2273 2081.5925 2090.856 2100.5056 2105.8706 2111.2358 2120.8853"
           style="font-size:19.29896545px;font-variant:normal;writing-mode:lr-tb;fill:#000000;fill-opacity:1;fill-rule:nonzero;stroke:none;font-family:Nimbus Roman No9 L;-inkscape-font-specification:NimbusRomNo9L-Regu">deadTimeDeliverDistribution</tspan>
      </text>
      <g
         transform="matrix(1.9371417,0,0,-1.9371417,1725.4698,1545.6519)"
         id="g6042">
        <path
           sodipodi:nodetypes="cc"
           id="path6044"
           style="fill:none;stroke:#000000;stroke-width:0.398;stroke-linecap:butt;stroke-linejoin:miter;stroke-miterlimit:10;stroke-opacity:1;stroke-dasharray:none"
           d="M 0,0 215.366,0"
           inkscape:connector-curvature="0" />
      </g>
      <g
         transform="matrix(1.9371417,0,0,-1.9371417,1725.4698,1549.5126)"
         id="g6046">
        <path
           sodipodi:nodetypes="cc"
           id="path6048"
           style="fill:none;stroke:#000000;stroke-width:0.398;stroke-linecap:butt;stroke-linejoin:miter;stroke-miterlimit:10;stroke-opacity:1;stroke-dasharray:none"
           d="M 0,0 215.366,0"
           inkscape:connector-curvature="0" />
      </g>
    </g>
  </g>
</svg>
