<?xml version="1.0" encoding="UTF-8" standalone="no"?>
<!-- Created with Inkscape (http://www.inkscape.org/) -->

<svg
   xmlns:dc="http://purl.org/dc/elements/1.1/"
   xmlns:cc="http://creativecommons.org/ns#"
   xmlns:rdf="http://www.w3.org/1999/02/22-rdf-syntax-ns#"
   xmlns:svg="http://www.w3.org/2000/svg"
   xmlns="http://www.w3.org/2000/svg"
   xmlns:sodipodi="http://sodipodi.sourceforge.net/DTD/sodipodi-0.dtd"
   xmlns:inkscape="http://www.inkscape.org/namespaces/inkscape"
   width="196.25"
   height="95.8125"
   id="svg2"
   version="1.1"
   inkscape:version="0.48.4 r9939"
   sodipodi:docname="NESTProxyStatistics.svg">
  <defs
     id="defs4">
    <clipPath
       clipPathUnits="userSpaceOnUse"
       id="clipPath4211">
      <path
         inkscape:connector-curvature="0"
         d="m 438.598,186.023 122.362,-0.044 0,-157.333 -228.362,0 0,169.07 97.043,0 8.957,-11.693 z"
         id="path4213" />
    </clipPath>
    <radialGradient
       fx="0"
       fy="0"
       cx="0"
       cy="0"
       r="1"
       gradientUnits="userSpaceOnUse"
       gradientTransform="matrix(-76.911545,0,0,-76.911545,526.86798,124.5199)"
       spreadMethod="pad"
       id="radialGradient4219">
      <stop
         style="stop-opacity:1;stop-color:#eef2f8"
         offset="0"
         id="stop4221" />
      <stop
         style="stop-opacity:1;stop-color:#b3dcc7"
         offset="1"
         id="stop4223" />
    </radialGradient>
    <clipPath
       clipPathUnits="userSpaceOnUse"
       id="clipPath4233">
      <path
         inkscape:connector-curvature="0"
         d="m 386.053,103.154 142.694,0 0,74.438 -142.694,0 0,-74.438 z"
         id="path4235" />
    </clipPath>
    <clipPath
       clipPathUnits="userSpaceOnUse"
       id="clipPath4321">
      <path
         inkscape:connector-curvature="0"
         d="m 359.286,35.433 169.847,0 0,142.544 -169.847,0 0,-142.544 z"
         id="path4323" />
    </clipPath>
    <clipPath
       clipPathUnits="userSpaceOnUse"
       id="clipPath4333">
      <path
         inkscape:connector-curvature="0"
         d="m 332.599,197.716 0,-169.07 228.361,0 0,157.333 -122.362,0.045 -8.957,11.692 -97.042,0 z"
         id="path4335" />
    </clipPath>
    <clipPath
       clipPathUnits="userSpaceOnUse"
       id="clipPath4353">
      <path
         inkscape:connector-curvature="0"
         d="m 359.286,35.433 169.847,0 0,142.544 -169.847,0 0,-142.544 z"
         id="path4355" />
    </clipPath>
    <clipPath
       clipPathUnits="userSpaceOnUse"
       id="clipPath4365">
      <path
         inkscape:connector-curvature="0"
         d="m 332.599,197.716 0,-169.07 228.361,0 0,157.333 -122.362,0.045 -8.957,11.692 -97.042,0 z"
         id="path4367" />
    </clipPath>
    <clipPath
       clipPathUnits="userSpaceOnUse"
       id="clipPath4385">
      <path
         inkscape:connector-curvature="0"
         d="m 359.286,35.433 169.847,0 0,142.544 -169.847,0 0,-142.544 z"
         id="path4387" />
    </clipPath>
    <clipPath
       clipPathUnits="userSpaceOnUse"
       id="clipPath4397">
      <path
         inkscape:connector-curvature="0"
         d="m 332.599,197.716 0,-169.07 228.361,0 0,157.333 -122.362,0.045 -8.957,11.692 -97.042,0 z"
         id="path4399" />
    </clipPath>
    <clipPath
       clipPathUnits="userSpaceOnUse"
       id="clipPath4417">
      <path
         inkscape:connector-curvature="0"
         d="m 359.286,35.433 169.847,0 0,142.544 -169.847,0 0,-142.544 z"
         id="path4419" />
    </clipPath>
    <clipPath
       clipPathUnits="userSpaceOnUse"
       id="clipPath4429">
      <path
         inkscape:connector-curvature="0"
         d="m 332.599,197.716 0,-169.07 228.361,0 0,157.333 -122.362,0.045 -8.957,11.692 -97.042,0 z"
         id="path4431" />
    </clipPath>
    <clipPath
       clipPathUnits="userSpaceOnUse"
       id="clipPath4449">
      <path
         inkscape:connector-curvature="0"
         d="m 359.286,35.433 169.847,0 0,142.544 -169.847,0 0,-142.544 z"
         id="path4451" />
    </clipPath>
    <clipPath
       clipPathUnits="userSpaceOnUse"
       id="clipPath4465">
      <path
         inkscape:connector-curvature="0"
         d="m 332.599,197.716 0,-169.07 228.361,0 0,157.333 -122.362,0.045 -8.957,11.692 -97.042,0 z"
         id="path4467" />
    </clipPath>
    <clipPath
       clipPathUnits="userSpaceOnUse"
       id="clipPath4631">
      <path
         inkscape:connector-curvature="0"
         d="m 359.286,35.433 169.847,0 0,142.544 -169.847,0 0,-142.544 z"
         id="path4633" />
    </clipPath>
    <clipPath
       clipPathUnits="userSpaceOnUse"
       id="clipPath4643">
      <path
         inkscape:connector-curvature="0"
         d="m 332.599,197.716 0,-169.07 228.361,0 0,157.333 -122.362,0.045 -8.957,11.692 -97.042,0 z"
         id="path4645" />
    </clipPath>
    <clipPath
       clipPathUnits="userSpaceOnUse"
       id="clipPath4663">
      <path
         inkscape:connector-curvature="0"
         d="m 359.286,35.433 169.847,0 0,142.544 -169.847,0 0,-142.544 z"
         id="path4665" />
    </clipPath>
    <clipPath
       clipPathUnits="userSpaceOnUse"
       id="clipPath4675">
      <path
         inkscape:connector-curvature="0"
         d="m 332.599,197.716 0,-169.07 228.361,0 0,157.333 -122.362,0.045 -8.957,11.692 -97.042,0 z"
         id="path4677" />
    </clipPath>
    <clipPath
       clipPathUnits="userSpaceOnUse"
       id="clipPath4695">
      <path
         inkscape:connector-curvature="0"
         d="m 359.286,35.433 169.847,0 0,142.544 -169.847,0 0,-142.544 z"
         id="path4697" />
    </clipPath>
    <clipPath
       clipPathUnits="userSpaceOnUse"
       id="clipPath4711">
      <path
         inkscape:connector-curvature="0"
         d="m 332.599,197.716 0,-169.07 228.361,0 0,157.333 -122.362,0.045 -8.957,11.692 -97.042,0 z"
         id="path4713" />
    </clipPath>
    <clipPath
       clipPathUnits="userSpaceOnUse"
       id="clipPath17412-3-5-0">
      <path
         inkscape:connector-curvature="0"
         d="m 419.517,223.087 -81.486,0 0,-120.056 222.929,0 0,131 -133.691,0 -7.752,-10.944 z"
         id="path17414-3-5-9" />
    </clipPath>
  </defs>
  <sodipodi:namedview
     id="base"
     pagecolor="#ffffff"
     bordercolor="#666666"
     borderopacity="1.0"
     inkscape:pageopacity="0.0"
     inkscape:pageshadow="2"
     inkscape:zoom="0.35"
     inkscape:cx="1286.4062"
     inkscape:cy="-54.174648"
     inkscape:document-units="px"
     inkscape:current-layer="layer1"
     showgrid="false"
     fit-margin-top="0"
     fit-margin-left="0"
     fit-margin-right="0"
     fit-margin-bottom="0"
     inkscape:window-width="1920"
     inkscape:window-height="1056"
     inkscape:window-x="1600"
     inkscape:window-y="24"
     inkscape:window-maximized="1" />
  <metadata
     id="metadata7">
    <rdf:RDF>
      <cc:Work
         rdf:about="">
        <dc:format>image/svg+xml</dc:format>
        <dc:type
           rdf:resource="http://purl.org/dc/dcmitype/StillImage" />
        <dc:title></dc:title>
      </cc:Work>
    </rdf:RDF>
  </metadata>
  <g
     inkscape:label="Layer 1"
     inkscape:groupmode="layer"
     id="layer1"
     transform="translate(911.40625,-382.375)">
    <path
       sodipodi:nodetypes="cccccccc"
       inkscape:connector-curvature="0"
       id="path21160-2-8-2-8-9"
       d="m -773.07475,435.50467 0,28.3905 55.8305,-39.5852 -55.8305,-39.5854 0,26.3899 c -53.742,0.3212 -97.1666,15.3501 -136.5782,44 l 18,21.3902 c 36.6692,-28.6051 68.4388,-43.781 118.5782,-41 z"
       style="fill:#c4c8b7;stroke:#000000;stroke-width:2.42765379px;stroke-linecap:butt;stroke-linejoin:miter;stroke-opacity:1" />
  </g>
</svg>
